<?xml version="1.0" encoding="UTF-8"?>
<svg xmlns="http://www.w3.org/2000/svg" viewBox="0 0 64 64" role="img" aria-label="Shoso">
  <defs>
    <linearGradient id="g" x1="10" y1="8" x2="54" y2="56" gradientUnits="userSpaceOnUse">
      <stop offset="0" stop-color="#8b5cf6"/>
      <stop offset="1" stop-color="#0ea5e9"/>
    </linearGradient>
  </defs>

  <rect x="2" y="2" width="60" height="60" rx="14" fill="url(#g)"/>

  <!-- Open book icon -->
  <path d="M32 22c-2.8-2.1-7.6-4-15-4-2.2 0-4.2.2-6 .6V48c1.8-.4 3.8-.6 6-.6 7.4 0 12.2 1.9 15 4" fill="none" stroke="#fff" stroke-width="4" stroke-linecap="round" stroke-linejoin="round"/>
  <path d="M32 22c2.8-2.1 7.6-4 15-4 2.2 0 4.2.2 6 .6V48c-1.8-.4-3.8-.6-6-.6-7.4 0-12.2 1.9-15 4" fill="none" stroke="#fff" stroke-width="4" stroke-linecap="round" stroke-linejoin="round"/>
  <path d="M32 22v30" fill="none" stroke="#fff" stroke-width="4" stroke-linecap="round"/>
</svg>






